<svg width="180" height="180" viewBox="0 0 180 180" fill="none" xmlns="http://www.w3.org/2000/svg">
  <!-- Background gradient -->
  <defs>
    <linearGradient id="bg" x1="0%" y1="0%" x2="100%" y2="100%">
      <stop offset="0%" style="stop-color:#6366f1;stop-opacity:1" />
      <stop offset="50%" style="stop-color:#8b5cf6;stop-opacity:1" />
      <stop offset="100%" style="stop-color:#d946ef;stop-opacity:1" />
    </linearGradient>
    <linearGradient id="sparkle" x1="0%" y1="0%" x2="100%" y2="100%">
      <stop offset="0%" style="stop-color:#fbbf24;stop-opacity:1" />
      <stop offset="100%" style="stop-color:#f59e0b;stop-opacity:1" />
    </linearGradient>
  </defs>
  
  <!-- Background circle -->
  <circle cx="90" cy="90" r="85" fill="url(#bg)" stroke="#1f2937" stroke-width="10"/>
  
  <!-- AI/Neural network symbol (stylized S) -->
  <path d="M55 67c0-11 8.5-17 17-17s17 6 17 17-8.5 17-17 17h-6v11h6c8.5 0 17 6 17 17s-8.5 17-17 17-17-6-17-17" 
        fill="none" stroke="#ffffff" stroke-width="14" stroke-linecap="round"/>
  
  <!-- Mint/sparkle elements -->
  <circle cx="125" cy="55" r="8" fill="url(#sparkle)"/>
  <circle cx="135" cy="80" r="6" fill="url(#sparkle)" opacity="0.8"/>
  <circle cx="45" cy="125" r="6" fill="url(#sparkle)" opacity="0.7"/>
  
  <!-- Small connecting dots (neural network style) -->
  <circle cx="115" cy="115" r="3" fill="#ffffff" opacity="0.6"/>
  <circle cx="65" cy="45" r="3" fill="#ffffff" opacity="0.6"/>
  <circle cx="145" cy="100" r="3" fill="#ffffff" opacity="0.5"/>
  <circle cx="35" cy="80" r="2" fill="#ffffff" opacity="0.4"/>
  <circle cx="150" cy="140" r="2" fill="#ffffff" opacity="0.4"/>
</svg>
