<svg width="32" height="32" viewBox="0 0 32 32" fill="none" xmlns="http://www.w3.org/2000/svg">
  <!-- Background gradient -->
  <defs>
    <linearGradient id="bg" x1="0%" y1="0%" x2="100%" y2="100%">
      <stop offset="0%" style="stop-color:#6366f1;stop-opacity:1" />
      <stop offset="50%" style="stop-color:#8b5cf6;stop-opacity:1" />
      <stop offset="100%" style="stop-color:#d946ef;stop-opacity:1" />
    </linearGradient>
    <linearGradient id="sparkle" x1="0%" y1="0%" x2="100%" y2="100%">
      <stop offset="0%" style="stop-color:#fbbf24;stop-opacity:1" />
      <stop offset="100%" style="stop-color:#f59e0b;stop-opacity:1" />
    </linearGradient>
  </defs>
  
  <!-- Background circle -->
  <circle cx="16" cy="16" r="15" fill="url(#bg)" stroke="#1f2937" stroke-width="2"/>
  
  <!-- AI/Neural network symbol (stylized S) -->
  <path d="M10 12c0-2 1.5-3 3-3s3 1 3 3-1.5 3-3 3h-1v2h1c1.5 0 3 1 3 3s-1.5 3-3 3-3-1-3-3" 
        fill="none" stroke="#ffffff" stroke-width="2.5" stroke-linecap="round"/>
  
  <!-- Mint/sparkle elements -->
  <circle cx="22" cy="10" r="1.5" fill="url(#sparkle)"/>
  <circle cx="24" cy="14" r="1" fill="url(#sparkle)" opacity="0.8"/>
  <circle cx="8" cy="22" r="1" fill="url(#sparkle)" opacity="0.7"/>
  
  <!-- Small connecting dots (neural network style) -->
  <circle cx="20" cy="20" r="0.5" fill="#ffffff" opacity="0.6"/>
  <circle cx="12" cy="8" r="0.5" fill="#ffffff" opacity="0.6"/>
  <circle cx="26" cy="18" r="0.5" fill="#ffffff" opacity="0.5"/>
</svg>
